<?xml version="1.0" encoding="UTF-8"?>
<svg version="1.1" xmlns="http://www.w3.org/2000/svg" width="53" height="40">
<path d="M0 0 C17.49 0 34.98 0 53 0 C53 13.2 53 26.4 53 40 C35.51 40 18.02 40 0 40 C0 26.8 0 13.6 0 0 Z " fill="#F7F6F3" transform="translate(0,0)"/>
<path d="M0 0 C8.91 0 17.82 0 27 0 C29 4 29 4 29 8 C27.04578965 8.86355778 25.08648653 9.71559934 23.125 10.5625 C22.03445312 11.03816406 20.94390625 11.51382812 19.8203125 12.00390625 C18.88960937 12.33261719 17.95890625 12.66132813 17 13 C16.34 12.67 15.68 12.34 15 12 C15.33 11.67 15.66 11.34 16 11 C16.2500773 8.54190002 16.2500773 8.54190002 16 6 C13.22420239 3.22420239 10.69693063 3.13938613 6.875 2.375 C4.95300781 1.98441406 4.95300781 1.98441406 2.9921875 1.5859375 C1.51105469 1.29589844 1.51105469 1.29589844 0 1 C0 0.67 0 0.34 0 0 Z " fill="#252422" transform="translate(16,11)"/>
<path d="M0 0 C0 2.31 0 4.62 0 7 C4.62 7.99 9.24 8.98 14 10 C14 10.33 14 10.66 14 11 C9.87513162 11.08676908 5.75049616 11.14031295 1.625 11.1875 C0.449375 11.21263672 -0.72625 11.23777344 -1.9375 11.26367188 C-3.05898438 11.27333984 -4.18046875 11.28300781 -5.3359375 11.29296875 C-6.37282715 11.3086792 -7.4097168 11.32438965 -8.47802734 11.34057617 C-9.31027832 11.22818604 -10.1425293 11.1157959 -11 11 C-13.1519437 7.77208445 -13.20086443 6.71599191 -13 3 C-11.40084119 2.30093058 -9.79544955 1.61610532 -8.1875 0.9375 C-7.29417969 0.55464844 -6.40085937 0.17179687 -5.48046875 -0.22265625 C-3 -1 -3 -1 0 0 Z " fill="#262523" transform="translate(24,17)"/>
<path d="M0 0 C1.8125 1.375 1.8125 1.375 3 3 C3 3.66 3 4.32 3 5 C2.34 5 1.68 5 1 5 C1 5.66 1 6.32 1 7 C-1.3125 7.6875 -1.3125 7.6875 -4 8 C-5.8125 6.8125 -5.8125 6.8125 -7 5 C-7 3.68 -7 2.36 -7 1 C-4.45132831 -0.27433584 -2.82594567 -0.27570202 0 0 Z " fill="#D8D7D4" transform="translate(30,14)"/>
<path d="M0 0 C0.66 0.99 1.32 1.98 2 3 C4.58380177 3.25030977 4.58380177 3.25030977 7 3 C7 2.34 7 1.68 7 1 C7.66 1 8.32 1 9 1 C8.49396008 3.16874252 8.00016187 4.99967627 7 7 C4.69 6.67 2.38 6.34 0 6 C-0.38218767 4.34385343 -0.71395102 2.67542976 -1 1 C-0.67 0.67 -0.34 0.34 0 0 Z " fill="#ECEBE8" transform="translate(24,18)"/>
<path d="M0 0 C0.99 0.33 1.98 0.66 3 1 C2.67 2.32 2.34 3.64 2 5 C1.01 5 0.02 5 -1 5 C-0.67 3.35 -0.34 1.7 0 0 Z " fill="#22211F" transform="translate(27,17)"/>
</svg>
